<svg width="123" height="24" viewBox="0 0 123 24" fill="none" xmlns="http://www.w3.org/2000/svg">
<path d="M8.69004 23.36C7.07004 23.36 5.61004 22.99 4.31004 22.25C3.03004 21.49 2.02004 20.47 1.28004 19.19C0.540044 17.89 0.170044 16.43 0.170044 14.81C0.170044 13.19 0.540044 11.74 1.28004 10.46C2.02004 9.17998 3.03004 8.16998 4.31004 7.42998C5.61004 6.68998 7.07004 6.31998 8.69004 6.31998C9.85004 6.31998 10.93 6.52998 11.93 6.94998C12.93 7.34998 13.79 7.90998 14.51 8.62998C15.25 9.32998 15.78 10.17 16.1 11.15L12.65 12.65C12.35 11.83 11.84 11.17 11.12 10.67C10.42 10.17 9.61004 9.91998 8.69004 9.91998C7.83004 9.91998 7.06004 10.13 6.38004 10.55C5.72004 10.97 5.20004 11.55 4.82004 12.29C4.44004 13.03 4.25004 13.88 4.25004 14.84C4.25004 15.8 4.44004 16.65 4.82004 17.39C5.20004 18.13 5.72004 18.71 6.38004 19.13C7.06004 19.55 7.83004 19.76 8.69004 19.76C9.63004 19.76 10.45 19.51 11.15 19.01C11.85 18.51 12.35 17.84 12.65 17L16.1 18.56C15.78 19.48 15.26 20.31 14.54 21.05C13.82 21.77 12.96 22.34 11.96 22.76C10.96 23.16 9.87004 23.36 8.69004 23.36Z" fill="#E57C23"/>
<path d="M19.082 23V0.289978H23.012V23H19.082Z" fill="#E57C23"/>
<path d="M26.6406 23V6.67998H30.5706V23H26.6406ZM26.6406 4.84998V0.649977H30.5706V4.84998H26.6406Z" fill="#E57C23"/>
<path d="M34.1992 23V6.67998H37.8892V10.46L37.4692 9.82998C37.7692 8.64998 38.3692 7.76998 39.2692 7.18998C40.1692 6.60998 41.2292 6.31998 42.4492 6.31998C43.7892 6.31998 44.9692 6.66998 45.9892 7.36998C47.0092 8.06998 47.6692 8.98998 47.9692 10.13L46.8592 10.22C47.3592 8.91998 48.1092 7.94998 49.1092 7.30998C50.1092 6.64998 51.2592 6.31998 52.5592 6.31998C53.7192 6.31998 54.7492 6.57998 55.6492 7.09998C56.5692 7.61998 57.2892 8.34998 57.8092 9.28998C58.3292 10.21 58.5892 11.28 58.5892 12.5V23H54.6592V13.43C54.6592 12.71 54.5292 12.09 54.2692 11.57C54.0092 11.05 53.6492 10.65 53.1892 10.37C52.7292 10.07 52.1692 9.91998 51.5092 9.91998C50.8892 9.91998 50.3392 10.07 49.8592 10.37C49.3792 10.65 49.0092 11.05 48.7492 11.57C48.4892 12.09 48.3592 12.71 48.3592 13.43V23H44.4292V13.43C44.4292 12.71 44.2992 12.09 44.0392 11.57C43.7792 11.05 43.4092 10.65 42.9292 10.37C42.4692 10.07 41.9192 9.91998 41.2792 9.91998C40.6592 9.91998 40.1092 10.07 39.6292 10.37C39.1492 10.65 38.7792 11.05 38.5192 11.57C38.2592 12.09 38.1292 12.71 38.1292 13.43V23H34.1992Z" fill="#E57C23"/>
<path d="M66.864 23.36C65.724 23.36 64.734 23.17 63.894 22.79C63.054 22.41 62.404 21.87 61.944 21.17C61.484 20.45 61.254 19.62 61.254 18.68C61.254 17.78 61.454 16.98 61.854 16.28C62.254 15.56 62.874 14.96 63.714 14.48C64.554 14 65.614 13.66 66.894 13.46L72.234 12.59V15.59L67.644 16.37C66.864 16.51 66.284 16.76 65.904 17.12C65.524 17.48 65.334 17.95 65.334 18.53C65.334 19.09 65.544 19.54 65.964 19.88C66.404 20.2 66.944 20.36 67.584 20.36C68.404 20.36 69.124 20.19 69.744 19.85C70.384 19.49 70.874 19 71.214 18.38C71.574 17.76 71.754 17.08 71.754 16.34V12.14C71.754 11.44 71.474 10.86 70.914 10.4C70.374 9.91998 69.654 9.67998 68.754 9.67998C67.914 9.67998 67.164 9.90998 66.504 10.37C65.864 10.81 65.394 11.4 65.094 12.14L61.884 10.58C62.204 9.71998 62.704 8.97998 63.384 8.35998C64.084 7.71998 64.904 7.21998 65.844 6.85998C66.784 6.49998 67.804 6.31998 68.904 6.31998C70.244 6.31998 71.424 6.56998 72.444 7.06998C73.464 7.54998 74.254 8.22998 74.814 9.10998C75.394 9.96998 75.684 10.98 75.684 12.14V23H71.964V20.21L72.804 20.15C72.384 20.85 71.884 21.44 71.304 21.92C70.724 22.38 70.064 22.74 69.324 23C68.584 23.24 67.764 23.36 66.864 23.36Z" fill="#E57C23"/>
<path d="M86.4634 23.18C84.6234 23.18 83.1934 22.68 82.1734 21.68C81.1734 20.66 80.6734 19.23 80.6734 17.39V10.19H77.8534V6.67998H78.1534C78.9534 6.67998 79.5734 6.46998 80.0134 6.04998C80.4534 5.62998 80.6734 5.01998 80.6734 4.21998V2.95998H84.6034V6.67998H88.3534V10.19H84.6034V17.18C84.6034 17.72 84.6934 18.18 84.8734 18.56C85.0734 18.94 85.3734 19.23 85.7734 19.43C86.1934 19.63 86.7234 19.73 87.3634 19.73C87.5034 19.73 87.6634 19.72 87.8434 19.7C88.0434 19.68 88.2334 19.66 88.4134 19.64V23C88.1334 23.04 87.8134 23.08 87.4534 23.12C87.0934 23.16 86.7634 23.18 86.4634 23.18Z" fill="#E57C23"/>
<path d="M91.416 23V6.67998H95.346V23H91.416ZM91.416 4.84998V0.649977H95.346V4.84998H91.416Z" fill="#E57C23"/>
<path d="M106.835 23.36C105.215 23.36 103.755 22.99 102.455 22.25C101.175 21.49 100.165 20.47 99.4246 19.19C98.6846 17.89 98.3146 16.43 98.3146 14.81C98.3146 13.19 98.6846 11.74 99.4246 10.46C100.165 9.17998 101.175 8.16998 102.455 7.42998C103.755 6.68998 105.215 6.31998 106.835 6.31998C107.995 6.31998 109.075 6.52998 110.075 6.94998C111.075 7.34998 111.935 7.90998 112.655 8.62998C113.395 9.32998 113.925 10.17 114.245 11.15L110.795 12.65C110.495 11.83 109.985 11.17 109.265 10.67C108.565 10.17 107.755 9.91998 106.835 9.91998C105.975 9.91998 105.205 10.13 104.525 10.55C103.865 10.97 103.345 11.55 102.965 12.29C102.585 13.03 102.395 13.88 102.395 14.84C102.395 15.8 102.585 16.65 102.965 17.39C103.345 18.13 103.865 18.71 104.525 19.13C105.205 19.55 105.975 19.76 106.835 19.76C107.775 19.76 108.595 19.51 109.295 19.01C109.995 18.51 110.495 17.84 110.795 17L114.245 18.56C113.925 19.48 113.405 20.31 112.685 21.05C111.965 21.77 111.105 22.34 110.105 22.76C109.105 23.16 108.015 23.36 106.835 23.36Z" fill="#E57C23"/>
<path opacity="0.6" d="M119.66 12C119.1 12 118.585 11.87 118.115 11.61C117.655 11.35 117.285 10.995 117.005 10.545C116.725 10.095 116.585 9.58 116.585 9C116.585 8.42 116.725 7.905 117.005 7.455C117.285 7.005 117.655 6.65 118.115 6.39C118.575 6.13 119.09 6 119.66 6C120.22 6 120.73 6.13 121.19 6.39C121.66 6.65 122.03 7.005 122.3 7.455C122.58 7.905 122.72 8.42 122.72 9C122.72 9.58 122.58 10.095 122.3 10.545C122.03 10.995 121.66 11.35 121.19 11.61C120.73 11.87 120.22 12 119.66 12ZM119.66 10.575C119.95 10.575 120.2 10.505 120.41 10.365C120.62 10.225 120.785 10.04 120.905 9.81C121.025 9.57 121.085 9.3 121.085 9C121.085 8.69 121.02 8.42 120.89 8.19C120.77 7.95 120.605 7.765 120.395 7.635C120.185 7.495 119.94 7.425 119.66 7.425C119.38 7.425 119.13 7.495 118.91 7.635C118.69 7.765 118.52 7.95 118.4 8.19C118.28 8.43 118.22 8.7 118.22 9C118.22 9.3 118.28 9.57 118.4 9.81C118.52 10.04 118.69 10.225 118.91 10.365C119.13 10.505 119.38 10.575 119.66 10.575Z" fill="#E57C23"/>
</svg>
